HIERARCHY
ROOT Hips
{
 OFFSET 0.000000 0.000000 0.000000
 CHANNELS 6 Xposition Yposition Zposition Yrotation Xrotation Zrotation
 JOINT Chest
 {
  OFFSET 0.000000 10.383400 0.001500
  CHANNELS 3 Yrotation Xrotation Zrotation
  JOINT Chest2
  {
   OFFSET 0.000000 10.418200 -0.003100
   CHANNELS 3 Yrotation Xrotation Zrotation
   JOINT Chest3
   {
    OFFSET 0.000000 10.375100 0.000000
    CHANNELS 3 Yrotation Xrotation Zrotation
    JOINT Chest4
    {
     OFFSET 0.000000 10.364600 0.000000
     CHANNELS 3 Yrotation Xrotation Zrotation
     JOINT Neck
     {
      OFFSET 0.000000 15.642200 0.000000
      CHANNELS 3 Yrotation Xrotation Zrotation
      JOINT Head
      {
       OFFSET 0.000000 9.697300 -0.006500
       CHANNELS 3 Yrotation Xrotation Zrotation
       End Site
       {
        OFFSET 0.000000 18.492200 -0.003400
       }
      }
     }
     JOINT RightCollar
     {
      OFFSET -3.166800 10.349300 0.000000
      CHANNELS 3 Yrotation Xrotation Zrotation
      JOINT RightShoulder
      {
       OFFSET -14.729700 0.000000 0.000000
       CHANNELS 3 Yrotation Xrotation Zrotation
       JOINT RightElbow
       {
        OFFSET 0.000000 -32.224300 0.000000
        CHANNELS 3 Yrotation Xrotation Zrotation
        JOINT RightWrist
        {
         OFFSET 0.000000 -26.084100 0.000000
         CHANNELS 3 Yrotation Xrotation Zrotation
         End Site
         {
          OFFSET 0.000000 -19.319400 0.000000
         }
        }
       }
      }
     }
     JOINT LeftCollar
     {
      OFFSET 3.166800 10.349300 0.000000
      CHANNELS 3 Yrotation Xrotation Zrotation
      JOINT LeftShoulder
      {
       OFFSET 14.729700 0.000000 0.000000
       CHANNELS 3 Yrotation Xrotation Zrotation
       JOINT LeftElbow
       {
        OFFSET 0.000000 -32.224300 0.000000
        CHANNELS 3 Yrotation Xrotation Zrotation
        JOINT LeftWrist
        {
         OFFSET 0.000000 -26.084100 0.000000
         CHANNELS 3 Yrotation Xrotation Zrotation
         End Site
         {
          OFFSET 0.000000 -19.319400 0.000000
         }
        }
       }
      }
     }
    }
   }
  }
 }
 JOINT RightHip
 {
  OFFSET -8.428900 -0.007500 -0.000800
  CHANNELS 3 Yrotation Xrotation Zrotation
  JOINT RightKnee
  {
   OFFSET 0.000000 -43.834600 0.000700
   CHANNELS 3 Yrotation Xrotation Zrotation
   JOINT RightAnkle
   {
    OFFSET 0.000000 -42.757000 0.001200
    CHANNELS 3 Yrotation Xrotation Zrotation
    JOINT RightToe
    {
     OFFSET 0.000000 -6.946900 15.649300
     CHANNELS 3 Yrotation Xrotation Zrotation
     End Site
     {
      OFFSET 0.000000 -1.580800 6.825800
     }
    }
   }
  }
 }
 JOINT LeftHip
 {
  OFFSET 8.428900 -0.007500 -0.000800
  CHANNELS 3 Yrotation Xrotation Zrotation
  JOINT LeftKnee
  {
   OFFSET 0.000000 -43.834600 0.000700
   CHANNELS 3 Yrotation Xrotation Zrotation
   JOINT LeftAnkle
   {
    OFFSET 0.000000 -42.757000 0.001200
    CHANNELS 3 Yrotation Xrotation Zrotation
    JOINT LeftToe
    {
     OFFSET 0.000000 -6.946900 15.649300
     CHANNELS 3 Yrotation Xrotation Zrotation
     End Site
     {
      OFFSET 0.000000 -1.580800 6.825800
     }
    }
   }
  }
 }
}
MOTION
Frames: 16
Frame Time: 0.008333
21.472442 126.962793 -41.485521 -13.963120 -28.593944 -2.198240 -0.909768 21.570449 2.886612 -0.193345 2.942712 0.418083 -0.303872 4.787193 0.675734 -0.884437 18.332242 2.502770 1.481604 13.570197 -2.036265 3.588456 -10.548909 -4.451211 -5.113874 -2.836842 -5.909721 -2.478336 -4.036318 -4.530165 35.478092 -67.020141 -16.028384 5.037236 -0.456090 -11.008826 -1.460352 -4.930512 -0.475794 5.075106 -3.250400 4.308786 -18.239910 -67.623999 -0.470950 -24.091773 5.274891 9.000890 -4.556589 -40.156020 -4.156057 -31.616338 79.573858 -30.665198 1.830554 -7.810197 5.546170 0.014944 -0.154424 0.006623 -6.400951 -33.589262 -4.560838 -4.774894 74.262172 -0.946042 -11.665603 -10.725412 -4.184690 0.023572 0.053521 0.010473
21.466359 126.957940 -41.471311 -13.994404 -28.502779 -2.150954 -0.903179 21.583740 2.898589 -0.188325 2.936611 0.418703 -0.295779 4.777790 0.677009 -0.844421 18.340880 2.529061 1.441595 13.436323 -2.097046 3.556571 -10.751887 -4.535326 -5.123295 -2.851104 -5.979613 -2.319975 -3.889257 -4.527593 35.319086 -67.066358 -16.037496 4.974636 -0.561291 -11.147820 -1.302137 -4.914685 -0.506182 5.130807 -3.482445 4.387156 -18.469546 -67.551865 -0.712268 -24.153798 5.308747 9.117121 -4.519886 -40.249703 -4.234414 -31.476655 79.632228 -30.455300 1.841554 -7.915395 5.471804 0.005744 -0.096447 0.002548 -6.204402 -33.601791 -4.696553 -4.663316 74.227493 -0.659892 -11.683951 -10.759556 -4.199999 0.011169 0.052477 0.004962
21.460831 126.952885 -41.457841 -14.037548 -28.403250 -2.094716 -0.880156 21.576104 2.906682 -0.182623 2.929121 0.418660 -0.286530 4.766234 0.677148 -0.809276 18.322205 2.537714 1.411643 13.356739 -2.134727 3.517790 -10.826064 -4.563427 -5.124487 -2.826022 -6.037181 -2.228398 -3.778792 -4.514892 35.039682 -67.104703 -15.855515 4.937464 -0.674890 -11.287759 -1.196166 -4.912367 -0.571900 5.025820 -3.663235 4.567036 -18.477545 -67.470004 -1.014520 -24.181598 5.284848 9.300604 -4.550639 -40.343658 -4.259732 -31.283812 79.666721 -30.276256 1.871393 -8.001921 5.425382 -0.016921 -0.065500 -0.007502 -6.101683 -33.649179 -4.790295 -4.159771 74.221789 -0.113208 -11.734275 -10.788134 -4.166790 0.005769 0.043676 0.002562
21.455882 126.948452 -41.443926 -14.071170 -28.308054 -2.040840 -0.854055 21.558453 2.909805 -0.177492 2.921259 0.417688 -0.294301 4.727671 0.661633 -0.758771 18.329698 2.553234 1.384001 13.291084 -2.161335 3.480359 -10.986603 -4.625437 -5.121025 -2.771319 -6.089293 -2.215103 -3.721194 -4.499973 34.650504 -67.143035 -15.478906 4.919112 -0.797474 -11.428550 -1.145431 -4.931427 -0.668211 4.813053 -3.771942 4.834385 -18.245238 -67.405034 -1.407193 -24.178026 5.198167 9.535805 -4.655467 -40.426647 -4.235105 -31.040941 79.690161 -30.109708 1.881417 -8.106999 5.398152 -0.035615 -0.041272 -0.015799 -6.083941 -33.711308 -4.887632 -3.500029 74.223963 0.565988 -11.792383 -10.813212 -4.191465 -0.013904 0.026351 -0.006175
21.447750 126.946145 -41.427922 -14.070383 -28.237347 -2.021305 -0.845348 21.539249 2.920876 -0.165535 2.929036 0.420520 -0.312129 4.696713 0.652487 -0.713710 18.330081 2.553731 1.359463 13.228892 -2.179180 3.444974 -11.137058 -4.668559 -5.140888 -2.719382 -6.121755 -2.245402 -3.689919 -4.507201 34.176631 -67.183402 -14.934928 4.912244 -0.926500 -11.564720 -1.137802 -4.951090 -0.773931 4.532573 -3.806399 5.147822 -17.847717 -67.381217 -1.834431 -24.141161 5.069653 9.805150 -4.833268 -40.482968 -4.163148 -30.828980 79.719901 -29.994551 1.882945 -8.197853 5.361369 -0.033239 -0.015642 -0.014751 -6.187571 -33.771369 -4.935486 -2.969917 74.243993 1.043074 -11.749506 -10.833045 -4.195374 -0.024333 0.002951 -0.010802
21.434797 126.947083 -41.407885 -14.058026 -28.208695 -2.033324 -0.814497 21.570779 2.962235 -0.163618 2.921592 0.418055 -0.279341 4.720014 0.666860 -0.738895 18.277120 2.527195 1.339121 13.163939 -2.190840 3.414579 -11.258075 -4.685756 -5.169260 -2.657386 -6.142274 -2.324543 -3.697154 -4.536398 33.670453 -67.234025 -14.290616 4.916236 -1.041693 -11.681016 -1.159774 -4.961645 -0.867207 4.214567 -3.769544 5.459775 -17.368115 -67.407235 -2.229745 -24.096691 4.924703 10.092752 -5.018873 -40.496186 -4.066408 -30.690953 79.758274 -29.936047 1.872135 -8.272885 5.315781 -0.016852 -0.002890 -0.007481 -6.332237 -33.804716 -4.916000 -2.574897 74.277566 1.345024 -11.744296 -10.853146 -4.176693 -0.027053 -0.020012 -0.012005
21.435574 126.937580 -41.404093 -14.022124 -28.068729 -2.012139 -0.814310 21.503557 2.953884 -0.187857 2.873191 0.412315 -0.257287 4.735422 0.667045 -0.740558 18.263390 2.505457 1.322622 13.091189 -2.197444 3.389851 -11.393623 -4.695359 -5.216128 -2.600280 -6.150501 -2.423115 -3.727234 -4.585893 33.219753 -67.297418 -13.656980 4.930184 -1.124474 -11.761849 -1.214087 -4.961887 -0.935938 3.904045 -3.673050 5.735104 -16.908021 -67.479134 -2.521464 -24.050397 4.783798 10.373806 -5.144857 -40.636153 -4.042724 -30.610327 79.800703 -29.914635 1.854670 -8.344571 5.289675 -0.002464 0.017731 -0.001094 -6.477990 -33.981214 -4.923924 -2.365850 74.308296 1.449172 -11.708877 -10.851572 -4.149643 -0.024607 -0.035497 -0.010917
21.431644 126.929847 -41.398361 -14.008578 -27.956556 -2.012182 -0.812770 21.420167 2.955679 -0.182057 2.868831 0.416309 -0.251206 4.758625 0.646465 -0.736374 18.240095 2.503495 1.311350 13.019420 -2.213584 3.372979 -11.550383 -4.699827 -5.272211 -2.553302 -6.153504 -2.517313 -3.761762 -4.658514 32.890442 -67.364393 -13.123495 4.967389 -1.178896 -11.839105 -1.292535 -4.940510 -0.987289 3.640564 -3.537641 5.950886 -16.542712 -67.585057 -2.680891 -23.979762 4.660209 10.622887 -5.210531 -40.747883 -4.014112 -30.604934 79.831080 -29.933654 1.855217 -8.387060 5.281201 0.001796 0.011061 0.000797 -6.613525 -34.130623 -4.881450 -2.769520 74.348235 0.972739 -11.587152 -10.874710 -4.091225 -0.017452 -0.049780 -0.007741
21.425364 126.922984 -41.391478 -14.026145 -27.860504 -2.019141 -0.775179 21.405414 2.953749 -0.170291 2.842532 0.428850 -0.254972 4.772018 0.625923 -0.733542 18.180215 2.534765 1.303448 12.961607 -2.255065 3.367226 -11.733185 -4.705936 -5.318911 -2.515398 -6.165255 -2.595166 -3.784514 -4.755504 32.686181 -67.425316 -12.712708 4.956489 -1.207896 -11.860160 -1.370692 -4.887448 -1.032715 3.441626 -3.384561 6.095485 -16.279081 -67.707400 -2.745860 -23.930956 4.579960 10.786595 -5.208489 -40.849214 -3.991266 -30.681851 79.865993 -29.995378 1.858791 -8.404042 5.272137 0.004394 -0.000613 0.001951 -6.710282 -34.269786 -4.802638 -3.014949 74.399783 0.651616 -11.536800 -10.888885 -4.056455 -0.009641 -0.056619 -0.004276
21.420077 126.916247 -41.384015 -14.055173 -27.768203 -2.025243 -0.745479 21.405646 2.934950 -0.158059 2.868957 0.412878 -0.258614 4.720937 0.643491 -0.698258 18.208784 2.490413 1.299905 12.810574 -2.217046 3.371252 -11.944076 -4.715926 -5.355051 -2.586417 -6.073539 -2.662099 -3.783361 -4.873138 32.555398 -67.471173 -12.392837 4.946584 -1.218403 -11.878776 -1.460111 -4.909713 -0.968144 3.315466 -3.234177 6.170059 -16.105653 -67.831132 -2.758107 -23.897025 4.504396 10.924391 -5.165159 -40.949217 -3.978307 -30.707036 79.922290 -29.989531 1.830752 -8.426421 5.271115 0.005351 -0.011714 0.002375 -6.754324 -34.400164 -4.734583 -3.237050 74.452946 0.387316 -11.493814 -10.908521 -4.037453 -0.002753 -0.054951 -0.001222
21.417914 126.910187 -41.374742 -14.077474 -27.681495 -2.024342 -0.737765 21.405585 2.899802 -0.158649 2.884565 0.401466 -0.248147 4.697764 0.650334 -0.677462 18.217528 2.471416 1.305117 12.665408 -2.205992 3.383432 -12.184074 -4.726332 -5.371297 -2.654980 -6.009512 -2.683135 -3.778825 -4.987053 32.428744 -67.496701 -12.115652 4.926310 -1.233932 -11.909437 -1.511583 -4.914593 -0.910021 3.259829 -3.104333 6.183449 -16.031838 -67.949646 -2.723555 -23.724473 4.418392 11.067319 -5.105338 -41.042638 -3.973660 -30.550298 80.005690 -29.823127 1.751510 -8.463219 5.300561 -0.007966 -0.020598 -0.003535 -6.759744 -34.512401 -4.701384 -3.653610 74.496491 -0.015217 -11.421901 -10.943548 -4.019605 -0.000446 -0.048246 -0.000198
21.414398 126.903608 -41.368365 -14.099499 -27.579706 -2.040513 -0.720537 21.398055 2.885661 -0.156718 2.882493 0.399848 -0.245069 4.694604 0.647729 -0.666816 18.213191 2.463718 1.325418 12.551640 -2.184105 3.395887 -12.482791 -4.761764 -5.434231 -2.701351 -5.959108 -2.603381 -3.793518 -5.087062 32.266137 -67.502756 -11.854884 4.890358 -1.264372 -11.930976 -1.532932 -4.908699 -0.853937 3.265333 -3.005496 6.150451 -16.120536 -68.084742 -2.580115 -23.662513 4.388611 11.119338 -5.075522 -41.146910 -3.937376 -30.559657 80.042406 -29.818987 1.727915 -8.467619 5.315478 -0.016146 -0.027298 -0.007164 -6.670117 -34.626615 -4.653500 -4.236201 74.537425 -0.538377 -11.391509 -10.977085 -3.984158 0.011383 -0.033081 0.005050
21.411947 126.898105 -41.361681 -14.106795 -27.479512 -2.058947 -0.710753 21.396218 2.878363 -0.156877 2.881865 0.398222 -0.245478 4.693568 0.645162 -0.669630 18.212237 2.453638 1.330711 12.377591 -2.201461 3.434696 -12.761750 -4.773469 -5.443606 -2.766720 -5.912523 -2.529257 -3.782403 -5.175801 32.056935 -67.498557 -11.597375 4.844267 -1.309985 -11.945416 -1.527410 -4.907751 -0.801120 3.323651 -2.939616 6.088946 -16.208344 -68.180174 -2.490193 -23.643294 4.340479 11.223647 -5.062448 -41.246349 -3.884309 -30.694471 80.056437 -29.949354 1.701629 -8.462973 5.322646 -0.008445 -0.029256 -0.003747 -6.566325 -34.722439 -4.630283 -4.683485 74.568381 -0.903781 -11.368405 -11.021388 -3.970389 0.017941 -0.011454 0.007963
21.407517 126.896958 -41.349582 -14.118414 -27.419695 -2.076151 -0.693502 21.433027 2.882823 -0.158942 2.882824 0.396729 -0.240730 4.645694 0.652542 -0.696103 18.264336 2.431412 1.341450 12.193473 -2.224399 3.486293 -13.056876 -4.801317 -5.439935 -2.832168 -5.882775 -2.435448 -3.757667 -5.237562 31.814053 -67.497041 -11.347437 4.820613 -1.370540 -11.975867 -1.496905 -4.910425 -0.761689 3.427710 -2.900083 6.013713 -16.349237 -68.279946 -2.380907 -23.673995 4.311017 11.335889 -5.052473 -41.297669 -3.816585 -30.933125 80.044163 -30.187507 1.683636 -8.450937 5.319481 0.016748 -0.032097 0.007431 -6.471955 -34.760766 -4.606178 -4.923583 74.593503 -1.077028 -11.380761 -11.074829 -3.961801 0.020063 0.005446 0.008907
21.403479 126.897931 -41.335829 -14.127326 -27.376113 -2.084848 -0.691007 21.479838 2.880450 -0.161681 2.885327 0.395326 -0.249288 4.674853 0.643945 -0.708045 18.246309 2.424958 1.362383 12.021288 -2.240678 3.542851 -13.374353 -4.850430 -5.417463 -2.893502 -5.870942 -2.342175 -3.713596 -5.267115 31.631322 -67.523261 -11.199833 4.773317 -1.406797 -11.968133 -1.442956 -4.915410 -0.740062 3.570165 -2.877515 5.938016 -16.601505 -68.389288 -2.213366 -23.718678 4.313850 11.431775 -5.061863 -41.325855 -3.751228 -31.032300 80.039277 -30.311528 1.659380 -8.453723 5.327060 0.021824 -0.029810 0.009683 -6.380030 -34.773542 -4.584334 -4.790829 74.616569 -0.915341 -11.486257 -11.128658 -3.926401 0.011540 0.017589 0.005124
21.402766 126.896528 -41.328185 -14.104306 -27.298338 -2.092127 -0.745349 21.485040 2.857701 -0.163614 2.889254 0.393834 -0.256482 4.705138 0.637642 -0.685257 18.183453 2.425829 1.354017 11.898802 -2.259021 3.603953 -13.689071 -4.905015 -5.406077 -2.901583 -5.880793 -2.264837 -3.648202 -5.265865 31.602188 -67.597550 -11.241884 4.691206 -1.391967 -11.907252 -1.401118 -4.875562 -0.741492 3.742101 -2.865920 5.874788 -16.834648 -68.500494 -2.088790 -23.791823 4.328386 11.499626 -5.110280 -41.384304 -3.696340 -31.162212 80.021692 -30.475304 1.654891 -8.465966 5.331605 0.023011 -0.020209 0.010212 -6.321468 -34.818222 -4.590760 -4.715723 74.623694 -0.798960 -11.546581 -11.171275 -3.910183 0.006404 0.027522 0.002844
